name D:\school\WTK\thesis\model\3dpredictsim\Results\debug\Pog_s1_tmt_bCst_d00_k1000000_ig24_act_TTM.mot
datacolumns 128
datarows 4
range 1.73767339 1.77242686
endheader
time	pelvis_tilt	pelvis_list	pelvis_rotation	pelvis_tx	pelvis_ty	pelvis_tz	hip_flexion_l	hip_adduction_l	hip_rotation_l	hip_flexion_r	hip_adduction_r	hip_rotation_r	knee_angle_l	knee_angle_r	ankle_angle_l	ankle_angle_r	subtalar_angle_l	subtalar_angle_r	tmt_angle_l	tmt_angle_r	mtp_angle_l	mtp_angle_r	lumbar_extension	lumbar_bending	lumbar_rotation	arm_flex_l	arm_add_l	arm_rot_l	arm_flex_r	arm_add_r	arm_rot_r	elbow_flex_l	elbow_flex_r	pro_sup_l	pro_sup_r	glut_med1_l/activation	glut_med2_l/activation	glut_med3_l/activation	glut_min1_l/activation	glut_min2_l/activation	glut_min3_l/activation	semimem_l/activation	semiten_l/activation	bifemlh_l/activation	bifemsh_l/activation	sar_l/activation	add_long_l/activation	add_brev_l/activation	add_mag1_l/activation	add_mag2_l/activation	add_mag3_l/activation	tfl_l/activation	pect_l/activation	grac_l/activation	glut_max1_l/activation	glut_max2_l/activation	glut_max3_l/activation	iliacus_l/activation	psoas_l/activation	quad_fem_l/activation	gem_l/activation	peri_l/activation	rect_fem_l/activation	vas_med_l/activation	vas_int_l/activation	vas_lat_l/activation	med_gas_l/activation	lat_gas_l/activation	soleus_l/activation	tib_post_l/activation	flex_dig_l/activation	flex_hal_l/activation	tib_ant_l/activation	per_brev_l/activation	per_long_l/activation	per_tert_l/activation	ext_dig_l/activation	ext_hal_l/activation	ercspn_l/activation	intobl_l/activation	extobl_l/activation	glut_med1_r/activation	glut_med2_r/activation	glut_med3_r/activation	glut_min1_r/activation	glut_min2_r/activation	glut_min3_r/activation	semimem_r/activation	semiten_r/activation	bifemlh_r/activation	bifemsh_r/activation	sar_r/activation	add_long_r/activation	add_brev_r/activation	add_mag1_r/activation	add_mag2_r/activation	add_mag3_r/activation	tfl_r/activation	pect_r/activation	grac_r/activation	glut_max1_r/activation	glut_max2_r/activation	glut_max3_r/activation	iliacus_r/activation	psoas_r/activation	quad_fem_r/activation	gem_r/activation	peri_r/activation	rect_fem_r/activation	vas_med_r/activation	vas_int_r/activation	vas_lat_r/activation	med_gas_r/activation	lat_gas_r/activation	soleus_r/activation	tib_post_r/activation	flex_dig_r/activation	flex_hal_r/activation	tib_ant_r/activation	per_brev_r/activation	per_long_r/activation	per_tert_r/activation	ext_dig_r/activation	ext_hal_r/activation	ercspn_r/activation	intobl_r/activation	extobl_r/activation	
          1.73767339	         -2.92958981	          1.48371735	         -6.71699664	          2.17209174	          0.86103984	          0.00143119	         32.34241716	          1.68559252	         -0.44146013	        -14.18443875	         -1.78394871	          7.30572498	        -18.02147614	        -17.58952743	          8.68264792	         -7.06130269	          1.57180761	         14.18630517	          0.00002989	         -0.00054702	         -0.10202895	         29.49791213	         -0.39633655	          0.61513144	          2.20852711	        -10.39635813	        -13.49655382	          8.24191436	          3.97353205	        -13.47702335	         17.55650852	         16.93067565	         39.96450186	         86.51662706	         86.51662706	          0.05000096	          0.05010737	          0.05965386	          0.05000243	          0.05000311	          0.05000886	          0.05907003	          0.05965411	          0.18859338	          0.05769477	          0.05000278	          0.05746250	          0.09623796	          0.16204754	          0.15758627	          0.12840191	          0.05000311	          0.05000979	          0.05964383	          0.05965417	          0.05000366	          0.11813746	          0.05947738	          0.06062469	          0.12466996	          0.05000147	          0.05865327	          0.05187656	          0.09073093	          0.09998908	          0.08053000	          0.05965368	          0.05672987	          0.05965371	          0.05965354	          0.05965461	          0.05965421	          0.52492498	          0.31735349	          0.21780242	          0.17822330	          0.53925525	          0.29305096	          0.05772286	          0.11819430	          0.11339761	          0.17871498	          0.09691076	          0.05652074	          0.21938908	          0.14367567	          0.10126941	          0.05000664	          0.05000060	          0.05000057	          0.05000454	          0.10131220	          0.05000068	          0.05000038	          0.05000043	          0.05000116	          0.05000102	          0.19666295	          0.05000209	          0.05000090	          0.05001397	          0.05000488	          0.05000145	          0.32117205	          0.54830277	          0.05000035	          0.05000262	          0.07863397	          0.19329810	          0.08718109	          0.10318707	          0.09898243	          0.15408289	          0.23590811	          0.05965371	          0.16012515	          0.18092762	          0.20437226	          0.05000027	          0.32192689	          0.31660923	          0.05000024	          0.23012187	          0.05000052	          0.05000003	          0.05000007	          0.05000014	
          1.74925788	         -2.92333998	          1.40824559	         -6.88618528	          2.19029167	          0.85992403	          0.00112561	         31.71738744	          1.88157501	         -0.25211582	        -14.41364811	         -1.95171155	          7.10269137	        -17.65252608	        -18.73308975	          8.20523003	         -9.63460456	          1.20368190	         14.61202639	          0.00002948	         -0.00085880	         -0.09852420	         30.75463870	         -0.16713697	          0.49360549	          2.28472727	        -11.63514589	        -13.47885775	          8.07099071	          3.63543700	        -13.51297550	         17.80733604	         16.93537364	         40.96794314	         86.51662706	         86.51662706	          0.05627284	          0.05000303	          0.05000059	          0.05965376	          0.05965297	          0.05000798	          0.05000060	          0.05000060	          0.16957311	          0.05000039	          0.05002116	          0.08491792	          0.16980027	          0.16109112	          0.18991501	          0.15667236	          0.05000043	          0.07487659	          0.05000130	          0.05000101	          0.14220930	          0.17965641	          0.05965382	          0.05249790	          0.10449507	          0.16539618	          0.16192933	          0.07117156	          0.21657361	          0.20982762	          0.18160078	          0.05000002	          0.05000005	          0.05000001	          0.05000003	          0.05000095	          0.05000063	          0.70420458	          0.35142477	          0.18255754	          0.53632137	          0.65016358	          0.45007032	          0.05000019	          0.09906698	          0.09504654	          0.14979376	          0.08122793	          0.05000050	          0.18388565	          0.12042489	          0.08488137	          0.05000244	          0.05000029	          0.05000031	          0.05000069	          0.08491733	          0.12458617	          0.22421933	          0.05747065	          0.05001017	          0.05000107	          0.16483719	          0.09417045	          0.05824177	          0.05000491	          0.05000282	          0.05000176	          0.26919700	          0.45957137	          0.07294741	          0.05001080	          0.06590959	          0.16201676	          0.09724180	          0.10679885	          0.08300921	          0.12914772	          0.19773121	          0.05000010	          0.13421218	          0.15164828	          0.17129884	          0.24088350	          0.32266599	          0.29263442	          0.46397257	          0.37452441	          0.20855899	          0.05641136	          0.05000033	          0.05000076	
          1.76084237	         -2.91060810	          1.33359852	         -7.02224258	          2.20872102	          0.85849660	          0.00083092	         30.96098711	          2.08638145	         -0.00840248	        -14.46001984	         -2.08308871	          6.90322109	        -17.91346464	        -20.24473660	          7.59374457	        -11.99222170	          0.83046013	         15.00870900	         -0.00001057	         -0.00114618	         -0.07072398	         31.22801956	          0.07527348	          0.35751229	          2.34927068	        -12.85925042	        -13.47100086	          7.96163967	          3.22534874	        -13.56105690	         17.98584388	         16.91682342	         41.95864510	         86.51662706	         86.51662706	          0.17033213	          0.05000046	          0.14597652	          0.05000034	          0.05000035	          0.05000057	          0.05000034	          0.05000056	          0.14213124	          0.05000015	          0.05000046	          0.07117616	          0.14232208	          0.26641441	          0.24671662	          0.15429781	          0.05000367	          0.06279733	          0.05002643	          0.13963998	          0.15059548	          0.15371576	          0.05000039	          0.05000049	          0.26281353	          0.13863040	          0.13572462	          0.05965410	          0.25783749	          0.25127954	          0.21876276	          0.05000210	          0.05965219	          0.05000037	          0.05965350	          0.05965463	          0.05965436	          0.61350544	          0.36526119	          0.19412021	          0.44952899	          0.57746660	          0.37723580	          0.05000005	          0.08303503	          0.07966521	          0.12555279	          0.06808343	          0.06333583	          0.15412771	          0.10093676	          0.07114540	          0.05083656	          0.05965629	          0.07117263	          0.05000067	          0.07117546	          0.16870594	          0.31703358	          0.31561062	          0.14236573	          0.17203891	          0.13816174	          0.07893162	          0.05966488	          0.05969057	          0.06188043	          0.07117315	          0.22563300	          0.38519930	          0.07117123	          0.06497785	          0.05965295	          0.13579767	          0.08150960	          0.09096317	          0.06957763	          0.10824781	          0.16573247	          0.05000001	          0.11249269	          0.12710721	          0.14357768	          0.43925642	          0.36760184	          0.28912841	          0.69755243	          0.52575563	          0.39803818	          0.07022233	          0.05965403	          0.05000097	
          1.77242686	         -2.89343210	          1.26244075	         -7.12321727	          2.22715451	          0.85675312	          0.00056303	         30.04326330	          2.27433625	          0.28254875	        -14.30880596	         -2.17534908	          6.71610765	        -18.46294837	        -22.14628562	          7.24099257	        -13.83222427	          0.42171042	         15.35692187	         -0.00001498	         -0.00125246	         -0.18116164	         30.30466631	          0.31074022	          0.20526047	          2.39947414	        -14.02199427	        -13.48220433	          7.95830011	          2.77659142	        -13.61719324	         18.09855219	         16.84645938	         42.93712002	         86.51662706	         86.51662706	          0.27884575	          0.28892767	          0.38400806	          0.24563583	          0.13519079	          0.26807700	          0.07117781	          0.09615038	          0.11913029	          0.07117178	          0.05000387	          0.05965792	          0.11929027	          0.22330109	          0.20755849	          0.16426832	          0.05000047	          0.05388984	          0.08493342	          0.23514063	          0.19662955	          0.16815758	          0.05000099	          0.05000060	          0.22028281	          0.11619647	          0.30473742	          0.05000035	          0.21611351	          0.24614090	          0.20970168	          0.05000019	          0.05000026	          0.05000010	          0.05000002	          0.05000100	          0.05000080	          0.69539998	          0.30615149	          0.16270591	          0.68940240	          0.67815554	          0.46019441	          0.05591446	          0.07857953	          0.06677303	          0.22827548	          0.05706577	          0.05308631	          0.12918662	          0.08460251	          0.05963256	          0.05000763	          0.05000245	          0.05965502	          0.05000041	          0.05965773	          0.14140455	          0.26573636	          0.26453572	          0.11932766	          0.14419836	          0.11580326	          0.06616506	          0.05001070	          0.05003306	          0.05186749	          0.05965559	          0.18911899	          0.38477786	          0.05965372	          0.05446299	          0.05000049	          0.11382160	          0.08491096	          0.07624756	          0.05831833	          0.09073012	          0.13891209	          0.05000004	          0.09428808	          0.10653766	          0.12034266	          0.38071053	          0.32172843	          0.25951513	          0.65247913	          0.59603281	          0.33362506	          0.09651703	          0.05000026	          0.05000017	
